solid ASCII
  facet normal 1.000000e+00 -0.000000e+00 0.000000e+00
    outer loop
      vertex   -1.175000e+02 2.000000e+01 -6.450000e+01
      vertex   -1.175000e+02 2.000000e+01 -6.750000e+01
      vertex   -1.175000e+02 2.200000e+01 -6.450000e+01
    endloop
  endfacet
  facet normal 1.000000e+00 0.000000e+00 0.000000e+00
    outer loop
      vertex   -1.175000e+02 2.200000e+01 -6.450000e+01
      vertex   -1.175000e+02 2.000000e+01 -6.750000e+01
      vertex   -1.175000e+02 2.200000e+01 -6.750000e+01
    endloop
  endfacet
  facet normal 0.000000e+00 0.000000e+00 1.000000e+00
    outer loop
      vertex   -1.350000e+02 2.000000e+01 -6.450000e+01
      vertex   -1.175000e+02 2.000000e+01 -6.450000e+01
      vertex   -1.350000e+02 2.200000e+01 -6.450000e+01
    endloop
  endfacet
  facet normal -0.000000e+00 0.000000e+00 1.000000e+00
    outer loop
      vertex   -1.350000e+02 2.200000e+01 -6.450000e+01
      vertex   -1.175000e+02 2.000000e+01 -6.450000e+01
      vertex   -1.175000e+02 2.200000e+01 -6.450000e+01
    endloop
  endfacet
  facet normal -1.000000e+00 0.000000e+00 0.000000e+00
    outer loop
      vertex   -1.350000e+02 2.000000e+01 -6.750000e+01
      vertex   -1.350000e+02 2.000000e+01 -6.450000e+01
      vertex   -1.350000e+02 2.200000e+01 -6.750000e+01
    endloop
  endfacet
  facet normal -1.000000e+00 0.000000e+00 0.000000e+00
    outer loop
      vertex   -1.350000e+02 2.200000e+01 -6.750000e+01
      vertex   -1.350000e+02 2.000000e+01 -6.450000e+01
      vertex   -1.350000e+02 2.200000e+01 -6.450000e+01
    endloop
  endfacet
  facet normal 0.000000e+00 0.000000e+00 -1.000000e+00
    outer loop
      vertex   -1.175000e+02 2.000000e+01 -6.750000e+01
      vertex   -1.350000e+02 2.000000e+01 -6.750000e+01
      vertex   -1.175000e+02 2.200000e+01 -6.750000e+01
    endloop
  endfacet
  facet normal -0.000000e+00 0.000000e+00 -1.000000e+00
    outer loop
      vertex   -1.175000e+02 2.200000e+01 -6.750000e+01
      vertex   -1.350000e+02 2.000000e+01 -6.750000e+01
      vertex   -1.350000e+02 2.200000e+01 -6.750000e+01
    endloop
  endfacet
  facet normal 0.000000e+00 1.000000e+00 0.000000e+00
    outer loop
      vertex   -1.350000e+02 2.200000e+01 -6.750000e+01
      vertex   -1.350000e+02 2.200000e+01 -6.450000e+01
      vertex   -1.175000e+02 2.200000e+01 -6.750000e+01
    endloop
  endfacet
  facet normal 0.000000e+00 1.000000e+00 -0.000000e+00
    outer loop
      vertex   -1.175000e+02 2.200000e+01 -6.750000e+01
      vertex   -1.350000e+02 2.200000e+01 -6.450000e+01
      vertex   -1.175000e+02 2.200000e+01 -6.450000e+01
    endloop
  endfacet
  facet normal 0.000000e+00 -1.000000e+00 0.000000e+00
    outer loop
      vertex   -1.350000e+02 2.000000e+01 -6.750000e+01
      vertex   -1.175000e+02 2.000000e+01 -6.750000e+01
      vertex   -1.350000e+02 2.000000e+01 -6.450000e+01
    endloop
  endfacet
  facet normal 0.000000e+00 -1.000000e+00 0.000000e+00
    outer loop
      vertex   -1.350000e+02 2.000000e+01 -6.450000e+01
      vertex   -1.175000e+02 2.000000e+01 -6.750000e+01
      vertex   -1.175000e+02 2.000000e+01 -6.450000e+01
    endloop
  endfacet
endsolid
